<?xml version="1.0" encoding="UTF-8" standalone="no"?>
<svg width="30px" height="30px" viewBox="0 0 30 30" version="1.1" xmlns="http://www.w3.org/2000/svg" xmlns:xlink="http://www.w3.org/1999/xlink">
    <!-- Generator: Sketch 3.8.3 (29802) - http://www.bohemiancoding.com/sketch -->
    <title>Page 1</title>
    <desc>Created with Sketch.</desc>
    <defs></defs>
    <g id="Page-1" stroke="none" stroke-width="1" fill="none" fill-rule="evenodd">
        <g fill="#51A852">
            <path d="M22.0179545,8.38159091 L10.2272727,20.1722727 L6.61840909,16.5634091 C6.35181818,16.2968182 5.92090909,16.2968182 5.65431818,16.5634091 C5.38772727,16.83 5.38772727,17.2609091 5.65431818,17.5275 L9.74522727,21.6184091 C9.87818182,21.7513636 10.0527273,21.8181818 10.2272727,21.8181818 C10.4018182,21.8181818 10.5763636,21.7513636 10.7093182,21.6184091 L22.9820455,9.34568182 C23.2486364,9.07909091 23.2486364,8.64818182 22.9820455,8.38159091 C22.7154545,8.115 22.2845455,8.115 22.0179545,8.38159091" id="Fill-1"></path>
            <path d="M15,28.6363636 C7.48090909,28.6363636 1.36363636,22.5184091 1.36363636,15 C1.36363636,7.48090909 7.48090909,1.36363636 15,1.36363636 C22.5184091,1.36363636 28.6363636,7.48090909 28.6363636,15 C28.6363636,22.5184091 22.5184091,28.6363636 15,28.6363636 M15,0 C6.72886364,0 0,6.72886364 0,15 C0,23.2711364 6.72886364,30 15,30 C23.2711364,30 30,23.2711364 30,15 C30,6.72886364 23.2711364,0 15,0" id="Fill-3"></path>
        </g>
    </g>
</svg>